<svg xmlns="http://www.w3.org/2000/svg" width="20" height="19" viewBox="0 0 20 19" fill="none">
  <path d="M11.8849 2.33207C10.9963 1.44354 10.5521 0.999268 10 0.999268C9.44794 0.999268 9.00367 1.44354 8.11513 2.33208C7.58194 2.86527 7.05357 3.11282 6.2934 3.11282C5.62967 3.11282 4.68536 2.98409 4.16667 3.50714C3.65208 4.02605 3.78024 4.96648 3.78024 5.62598C3.78024 6.38617 3.53267 6.91453 2.99947 7.44774C2.11094 8.33626 1.66668 8.78053 1.66667 9.33258C1.66669 9.88464 2.11095 10.3289 2.99949 11.2175C3.5968 11.8148 3.78024 12.2004 3.78024 13.0392C3.78024 13.7029 3.65151 14.6472 4.17458 15.1659C4.69349 15.6805 5.6339 15.5523 6.29339 15.5523C7.10291 15.5523 7.49274 15.7107 8.07048 16.2885C8.56244 16.7804 9.22192 17.6659 10 17.6659C10.7781 17.6659 11.4376 16.7804 11.9295 16.2885C12.5073 15.7107 12.8971 15.5523 13.7066 15.5523C14.3661 15.5523 15.3065 15.6805 15.8254 15.1659M17.0005 7.44774C17.8891 8.33626 18.3333 8.78053 18.3333 9.33258C18.3333 9.88464 17.8891 10.3289 17.0005 11.2175C16.4032 11.8147 16.2198 12.2005 16.2198 13.0392C16.2198 13.7029 16.3485 14.6472 15.8254 15.1659M15.8254 15.1659H15.8333" stroke="#0C9587" stroke-width="1.5" stroke-linecap="round" stroke-linejoin="round"/>
  <path d="M6.66667 7.92234C6.66667 7.92234 8.54167 7.66593 10 10.9993C10 10.9993 14.2157 2.66593 18.3333 0.999268" stroke="#0C9587" stroke-width="1.5" stroke-linecap="round" stroke-linejoin="round"/>
</svg>
<svg xmlns="http://www.w3.org/2000/svg" viewBox="0 0 24 24" width="20" height="20" color="#000000" fill="none">
    <path d="M21.4477 8.2C21.5 9.25014 21.5 10.4994 21.5 12C21.5 16.4783 21.5 18.7175 20.1088 20.1088C18.7175 21.5 16.4783 21.5 12 21.5C7.52166 21.5 5.28249 21.5 3.89124 20.1088C2.5 18.7175 2.5 16.4783 2.5 12C2.5 7.52166 2.5 5.28249 3.89124 3.89124C5.28249 2.5 7.52166 2.5 12 2.5C13.0719 2.5 14.0156 2.5 14.85 2.51908" stroke="currentColor" stroke-width="1.5" stroke-linecap="round" />
    <path d="M8 11.5C8 11.5 9.5 11.5 11.5 15C11.5 15 16.5588 5.83333 21.5 4" stroke="currentColor" stroke-width="1.5" stroke-linecap="round" stroke-linejoin="round" />
</svg>