<svg xmlns="http://www.w3.org/2000/svg" width="16" height="17" viewBox="0 0 16 17" fill="none">
  <g clip-path="url(#clip0_6946_13712)">
    <path d="M6.35732 14.4592L6.35793 14.4593C6.5065 14.4991 6.61861 14.5941 6.66311 14.6325C6.72615 14.6868 6.78738 14.7497 6.84014 14.8073C6.94464 14.9212 7.0487 15.0504 7.11431 15.1319L7.11749 15.1358L6.72809 15.4495L7.11749 15.1359C7.29072 15.3509 7.43661 15.5291 7.59575 15.6595C7.74579 15.7825 7.87188 15.8325 8 15.8325C8.12809 15.8325 8.25418 15.7825 8.40421 15.6595C8.56335 15.5291 8.70924 15.3509 8.88248 15.1359L8.88552 15.1321C8.95113 15.0506 9.05525 14.9213 9.15981 14.8072C9.21257 14.7497 9.27381 14.6867 9.33685 14.6324C9.38133 14.5941 9.49352 14.499 9.64222 14.4593L9.64231 14.4593C9.78378 14.4215 9.9198 14.4402 9.98891 14.4518C10.0744 14.4662 10.1615 14.4896 10.2387 14.5132C10.3909 14.5596 10.5527 14.6218 10.6668 14.6657L10.6721 14.6677L10.6721 14.6677C10.9251 14.765 11.136 14.8442 11.3341 14.8767C11.5211 14.9075 11.6483 14.8878 11.7509 14.8285L6.35732 14.4592ZM6.35732 14.4592C6.216 14.4215 6.08015 14.4402 6.01094 14.4518C5.92543 14.4662 5.83834 14.4896 5.76116 14.5132C5.60918 14.5595 5.44761 14.6216 5.33355 14.6655L5.32785 14.6677L5.32783 14.6677C5.07483 14.765 4.86383 14.8441 4.66576 14.8767C4.47869 14.9074 4.35148 14.8877 4.249 14.8284L4.24896 14.8284C4.14322 14.7672 4.0612 14.6643 3.9938 14.4849C3.92242 14.2949 3.88552 14.0704 3.8434 13.8005C3.8434 13.8004 3.8434 13.8004 3.8434 13.8004L3.8424 13.794C3.82383 13.675 3.79759 13.5068 3.76313 13.355C3.74562 13.2779 3.72322 13.1923 3.69409 13.1126C3.67126 13.0501 3.62052 12.921 3.51599 12.8165L3.51587 12.8163C3.41131 12.7118 3.28221 12.6611 3.21975 12.6382C3.14008 12.6091 3.05448 12.5867 2.97738 12.5692C2.8256 12.5347 2.65737 12.5085 2.53833 12.4899L2.53192 12.4889M6.35732 14.4592L2.53192 12.4889M2.53192 12.4889C2.53192 12.4889 2.53191 12.4889 2.53191 12.4889C2.26195 12.4468 2.03742 12.4099 1.84746 12.3385C1.6681 12.2712 1.56521 12.1891 1.50405 12.0834L1.50404 12.0834C1.44472 11.9809 1.42501 11.8536 1.45577 11.6666C1.48835 11.4686 1.56749 11.2576 1.66475 11.0046M2.53192 12.4889L1.66475 11.0046M1.66475 11.0046C1.66475 11.0046 1.66475 11.0046 1.66476 11.0046M1.66475 11.0046L1.66476 11.0046M1.66476 11.0046L1.66711 10.9985C1.71095 10.8845 1.77301 10.7231 1.81935 10.5713C1.84292 10.4942 1.86633 10.407 1.88071 10.3215C1.89234 10.2523 1.91105 10.1163 1.87325 9.97475L1.87321 9.97461C1.83346 9.826 1.7384 9.71385 1.70008 9.66937C1.64577 9.60633 1.58284 9.5451 1.52529 9.49234C1.41129 9.38783 1.28207 9.28375 1.2006 9.21814L1.1967 9.215L1.19668 9.21498C0.981598 9.04176 0.803441 8.89587 0.673005 8.73673C0.550034 8.5867 0.5 8.46061 0.5 8.33252C0.5 8.20442 0.550037 8.07832 0.673011 7.92828C0.803446 7.76914 0.981599 7.62324 1.19667 7.45001L0.883031 7.06061L1.19667 7.45001L1.20072 7.44675C1.28217 7.38115 1.41133 7.27712 1.52528 7.17266C1.58283 7.11989 1.64578 7.05865 1.70009 6.99559C1.73843 6.95108 1.83348 6.83893 1.87322 6.6903L1.66476 11.0046ZM9.27191 1.21555L8.88251 1.52919C8.70928 1.31412 8.56338 1.13597 8.40424 1.00553C8.2542 0.882556 8.1281 0.83252 8 0.83252C7.87191 0.83252 7.74582 0.882554 7.59579 1.00552C7.43665 1.13595 7.29077 1.31409 7.11755 1.52915C7.11754 1.52917 7.11753 1.52918 7.11752 1.52919L7.11447 1.53298C7.04885 1.61447 6.94475 1.74375 6.84019 1.8578C6.78743 1.91536 6.72619 1.9783 6.66315 2.03262C6.61867 2.07093 6.50648 2.16603 6.35779 2.20576L6.35733 2.20588C6.21602 2.24349 6.0802 2.22483 6.01095 2.21319C5.92543 2.19881 5.83835 2.1754 5.76117 2.15185C5.60936 2.10551 5.44797 2.04346 5.33398 1.99963L5.32795 1.99731L5.32792 1.9973C5.07498 1.90004 4.86397 1.82089 4.66592 1.78832C4.47888 1.75756 4.35163 1.77727 4.24911 1.83655L9.27191 1.21555ZM9.27191 1.21555L8.88251 1.52919L8.88565 1.53309C8.95126 1.61455 9.05534 1.74378 9.15986 1.85778C9.21262 1.91533 9.27385 1.97827 9.33689 2.03258C9.38139 2.07091 9.4935 2.16594 9.64207 2.20571L9.64276 2.20589C9.78406 2.24349 9.9199 2.2248 9.98909 2.21317C10.0746 2.1988 10.1617 2.1754 10.2388 2.15185C10.3907 2.10552 10.5522 2.04347 10.6662 1.99965L10.6721 1.99737L10.6721 1.99736C10.9251 1.90011 11.1362 1.82096 11.3343 1.78838C11.5214 1.75762 11.6486 1.77734 11.7511 1.83664L11.7511 1.83665C11.8568 1.89782 11.9388 2.00073 12.0062 2.18011C12.0776 2.37009 12.1145 2.59463 12.1566 2.86459C12.1566 2.86459 12.1566 2.86459 12.1566 2.8646L12.1576 2.87125C12.1762 2.99024 12.2024 3.15836 12.2369 3.31004C12.2544 3.38714 12.2767 3.47274 12.3059 3.55242C12.3287 3.61488 12.3794 3.744 12.484 3.84857L12.4841 3.8487C12.5887 3.95322 12.7178 4.00396 12.7802 4.0268C12.8599 4.05593 12.9455 4.07833 13.0226 4.09583C13.1744 4.1303 13.3426 4.15655 13.4617 4.17511L13.468 4.17611M9.27191 1.21555L13.468 4.17611M13.468 4.17611C13.4681 4.17611 13.4681 4.17611 13.4681 4.17611C13.738 4.21823 13.9625 4.25513 14.1525 4.3265C14.3319 4.39388 14.4348 4.47588 14.496 4.58158M13.468 4.17611L14.496 4.58158M14.496 4.58158C14.5553 4.68413 14.575 4.81139 14.5442 4.99843C14.5116 5.19647 14.4325 5.40745 14.3352 5.6604L14.8019 5.83986L14.3352 5.66041L14.3329 5.66653C14.289 5.78052 14.227 5.94191 14.1806 6.09372C14.1571 6.17091 14.1336 6.25803 14.1193 6.34359C14.1076 6.41279 14.0889 6.54881 14.1268 6.6903C14.1268 6.69033 14.1268 6.69036 14.1268 6.69039L14.6098 6.56124C14.6408 6.67714 14.9505 6.92661 15.117 7.06064M14.496 4.58158L15.327 7.92831C15.45 8.07834 15.5 8.20443 15.5 8.33252C15.5 8.46062 15.45 8.58671 15.327 8.73676C15.1966 8.8959 15.0184 9.0418 14.8033 9.21503L15.117 9.60443C15.5309 9.27105 16 8.89318 16 8.33252C16 7.77187 15.5309 7.39403 15.117 7.06066L15.117 7.06064M15.117 7.06064L14.8033 7.45004L14.8034 7.45007L15.117 7.06064ZM1.66482 5.66034L1.66483 5.66037L1.66732 5.66684C1.71112 5.78078 1.7731 5.942 1.81939 6.09363C1.84295 6.17082 1.86636 6.25794 1.88073 6.3435C1.89236 6.41271 1.91106 6.54875 1.87323 6.69027L1.66482 5.66034ZM1.66482 5.66034C1.56756 5.40736 1.48841 5.19636 1.45584 4.9983M1.66482 5.66034L1.45584 4.9983M3.51612 3.84848L3.51606 3.84854C3.41148 3.95308 3.28236 4.00382 3.2199 4.02665C3.14022 4.05577 3.05462 4.07817 2.97752 4.09567C2.82584 4.1301 2.65772 4.15632 2.53873 4.17488L2.53208 4.17592L3.51612 3.84848ZM3.51612 3.84848C3.62069 3.7439 3.67145 3.61476 3.69428 3.55231C3.7234 3.47264 3.7458 3.38704 3.76331 3.30994C3.79771 3.1584 3.82393 2.99042 3.8425 2.87145L3.84358 2.86451L3.84359 2.86447M3.51612 3.84848L3.84359 2.86447M3.84359 2.86447C3.8857 2.59451 3.92261 2.36998 3.99398 2.18M3.84359 2.86447L3.99398 2.18M1.45584 4.9983C1.42508 4.81123 1.4448 4.68399 1.50412 4.58147L1.45584 4.9983ZM3.99398 2.18C4.06136 2.00066 4.14336 1.89775 4.24908 1.83657L3.99398 2.18ZM13.4613 12.4902L13.4679 12.4891L13.4613 12.4902ZM13.4613 12.4902C13.3423 12.5087 13.1742 12.5349 13.0225 12.5694C12.9454 12.5869 12.8598 12.6093 12.7801 12.6384C12.7176 12.6612 12.5885 12.712 12.4839 12.8165L12.4838 12.8166M13.4613 12.4902L12.4838 12.8166M12.4838 12.8166C12.3793 12.9212 12.3286 13.0503 12.3057 13.1127M12.4838 12.8166L12.3057 13.1127M12.3057 13.1127C12.2766 13.1924 12.2542 13.278 12.2367 13.3551M12.3057 13.1127L12.2367 13.3551M12.2367 13.3551C12.2022 13.5069 12.176 13.6751 12.1574 13.7942M12.2367 13.3551L12.1574 13.7942M12.1574 13.7942L12.1564 13.8006M12.1574 13.7942L12.1564 13.8006M12.1564 13.8006C12.1564 13.8006 12.1564 13.8006 12.1564 13.8006M12.1564 13.8006L12.1564 13.8006M12.1564 13.8006C12.1143 14.0705 12.0774 14.2951 12.006 14.485M12.1564 13.8006L12.006 14.485M12.006 14.485C11.9386 14.6644 11.8566 14.7673 11.7509 14.8285L12.006 14.485ZM1.8476 4.32631C2.03758 4.25494 2.26211 4.21804 2.53207 4.17592L1.50412 4.58146C1.56531 4.47571 1.66823 4.3937 1.8476 4.32631Z" stroke="white"/>
    <path d="M6.45243 12.0567C6.21368 11.9565 6.1014 11.6818 6.20158 11.4431L9.02533 4.71474C9.12552 4.47602 9.40024 4.36374 9.63896 4.46393C9.87768 4.56411 9.98996 4.83883 9.88977 5.07755L7.06602 11.8059C6.96583 12.0446 6.69111 12.1569 6.45243 12.0567ZM7.80965 6.03239C7.80965 4.97446 7.03965 4.11377 6.09321 4.11377C5.14677 4.11377 4.37677 4.97446 4.37677 6.03239C4.37677 7.09033 5.14677 7.95102 6.09321 7.95102C7.03965 7.95102 7.80965 7.0903 7.80965 6.03239ZM6.87215 6.03239C6.87215 6.57339 6.52271 7.01352 6.09321 7.01352C5.66371 7.01352 5.31427 6.57339 5.31427 6.03239C5.31427 5.49139 5.66371 5.05127 6.09321 5.05127C6.52271 5.05127 6.87215 5.49139 6.87215 6.03239ZM11.6232 10.6326C11.6232 9.57471 10.8532 8.71402 9.9068 8.71402C8.96036 8.71402 8.19036 9.57471 8.19036 10.6326C8.19036 11.6906 8.96036 12.5513 9.90683 12.5513C10.8533 12.5513 11.6232 11.6906 11.6232 10.6326ZM10.6857 10.6326C10.6857 11.1736 10.3363 11.6138 9.9068 11.6138C9.4773 11.6138 9.12786 11.1736 9.12786 10.6326C9.12786 10.0916 9.4773 9.65152 9.9068 9.65152C10.3363 9.65152 10.6857 10.0917 10.6857 10.6326Z" fill="white"/>
  </g>
  <defs>
    <clipPath id="clip0_6946_13712">
      <rect width="16" height="16" fill="white" transform="translate(0 0.33252)"/>
    </clipPath>
  </defs>
</svg>