<svg xmlns="http://www.w3.org/2000/svg" width="16" height="19" viewBox="0 0 16 19" fill="none">
  <path d="M0.916682 7.66581C0.916682 4.52312 0.916682 2.95177 1.95401 1.97546C2.99134 0.999146 4.6609 0.999146 8.00002 0.999146H8.64395C11.3616 0.999146 12.7205 0.999146 13.6641 1.66401C13.9345 1.8545 14.1745 2.08042 14.3769 2.33489C15.0833 3.22304 15.0833 4.50194 15.0833 7.05975V9.18096C15.0833 11.6503 15.0833 12.8849 14.6926 13.871C14.0643 15.4563 12.7357 16.7067 11.0514 17.298C10.0037 17.6658 8.69184 17.6658 6.0682 17.6658C4.56897 17.6658 3.81936 17.6658 3.22066 17.4556C2.25818 17.1178 1.49897 16.4032 1.13999 15.4974C0.916682 14.9339 0.916682 14.2284 0.916682 12.8173V7.66581Z" stroke="#DC6803" stroke-width="1.5" stroke-linejoin="round"/>
  <path d="M15.0833 9.33252C15.0833 10.8666 13.8397 12.1103 12.3056 12.1103C11.7508 12.1103 11.0967 12.0131 10.5572 12.1576C10.0779 12.286 9.70355 12.6604 9.57512 13.1397C9.43058 13.6792 9.52779 14.3333 9.52779 14.8881C9.52779 16.4222 8.28414 17.6659 6.75002 17.6659" stroke="#DC6803" stroke-width="1.5" stroke-linecap="round" stroke-linejoin="round"/>
  <path d="M4.66668 5.16577H10.5" stroke="#DC6803" stroke-width="1.5" stroke-linecap="round" stroke-linejoin="round"/>
  <path d="M4.66668 8.49915H7.16668" stroke="#DC6803" stroke-width="1.5" stroke-linecap="round" stroke-linejoin="round"/>
</svg>