<svg xmlns="http://www.w3.org/2000/svg" width="14" height="19" viewBox="0 0 14 19" fill="none">
  <path fill-rule="evenodd" clip-rule="evenodd" d="M2.15153 7.94371C1.33673 7.94371 1.16668 8.10359 1.16668 8.86964L1.16668 10.2585C1.16668 11.0246 1.33673 11.1845 2.15153 11.1845H4.12123L4.12123 16.74C4.12123 17.5061 4.29128 17.6659 5.10608 17.6659H7.07577C7.89057 17.6659 8.06062 17.5061 8.06062 16.74V11.1845H10.2723C10.8903 11.1845 11.0495 11.0715 11.2192 10.5129L11.6413 9.12401C11.9321 8.16707 11.7529 7.94371 10.6944 7.94371L8.06062 7.94371L8.06062 5.6289C8.06062 5.11752 8.50155 4.70297 9.04547 4.70297L11.8485 4.70297C12.6633 4.70297 12.8333 4.5431 12.8333 3.77705V1.92519C12.8333 1.15914 12.6633 0.999268 11.8485 0.999268L9.04547 0.999268C6.32589 0.999268 4.12123 3.07202 4.12123 5.6289V7.94371L2.15153 7.94371Z" stroke="#155EEF" stroke-width="1.5" stroke-linejoin="round"/>
</svg>