<svg width="56" height="56" viewBox="0 0 56 56" fill="none" xmlns="http://www.w3.org/2000/svg">
<g clip-path="url(#clip0_7583_19935)">
<path d="M38.6094 11.4913L32.4401 0.882904C31.9685 0.847904 31.4922 0.829529 31.0121 0.829529H8.88245C4.44828 0.829419 0.820312 4.45739 0.820312 8.89167V47.1085C0.820312 51.5427 4.44828 55.1706 8.88245 55.1706H42.1799C46.6141 55.1706 50.2421 51.5427 50.2421 47.1085V20.0595C50.2421 19.0726 50.1666 18.1025 50.0213 17.1544L38.6094 11.4913Z" fill="#E9EFFF"/>
<path d="M17.8543 55.1578C13.4201 55.1578 9.79213 51.5299 9.79213 47.0957V8.87887C9.79213 4.59323 13.1813 1.06129 17.4117 0.829529H8.88267C4.44828 0.829419 0.820312 4.45739 0.820312 8.89167V47.1085C0.820312 51.5427 4.44828 55.1706 8.88245 55.1706H42.1799C42.3285 55.1706 42.4759 55.1659 42.6226 55.1578H17.8543Z" fill="#DAE2FE"/>
<path d="M16.7205 27.5346C18.4937 27.5346 19.9312 26.3899 19.9312 24.9778C19.9312 23.5656 18.4937 22.4209 16.7205 22.4209C14.9472 22.4209 13.5098 23.5656 13.5098 24.9778C13.5098 26.3899 14.9472 27.5346 16.7205 27.5346Z" fill="#FFA1AC"/>
<path d="M34.1233 27.5346C35.8965 27.5346 37.334 26.3899 37.334 24.9778C37.334 23.5656 35.8965 22.4209 34.1233 22.4209C32.3501 22.4209 30.9126 23.5656 30.9126 24.9778C30.9126 26.3899 32.3501 27.5346 34.1233 27.5346Z" fill="#FFA1AC"/>
<path d="M42.784 51.9981C49.63 51.9981 55.1798 46.4483 55.1798 39.6023C55.1798 32.7563 49.63 27.2065 42.784 27.2065C35.938 27.2065 30.3882 32.7563 30.3882 39.6023C30.3882 46.4483 35.938 51.9981 42.784 51.9981Z" fill="#FF8A98"/>
<path d="M37.7869 39.6023C37.7869 34.0447 41.4442 29.3416 46.4834 27.768C45.315 27.4031 44.0725 27.2065 42.784 27.2065C35.938 27.2065 30.3882 32.7563 30.3882 39.6023C30.3882 46.4483 35.938 51.9981 42.784 51.9981C44.0725 51.9981 45.315 51.8013 46.4834 51.4365C41.4442 49.863 37.7869 45.1598 37.7869 39.6023Z" fill="#FD5C6F"/>
<path d="M46.0605 39.6023L48.2447 37.4181C49.1494 36.5133 49.1494 35.0465 48.2447 34.1418C47.3399 33.237 45.8731 33.237 44.9683 34.1418L42.7841 36.326L40.5999 34.1418C39.6952 33.237 38.2283 33.237 37.3236 34.1418C36.4188 35.0465 36.4188 36.5133 37.3236 37.4181L39.5078 39.6023L37.3236 41.7865C36.4188 42.6913 36.4188 44.1581 37.3236 45.0628C38.2283 45.9676 39.6952 45.9676 40.5999 45.0628L42.7841 42.8786L44.9683 45.0628C45.8731 45.9676 47.3399 45.9676 48.2447 45.0628C49.1494 44.1581 49.1494 42.6913 48.2447 41.7865L46.0605 39.6023Z" fill="#F6334C"/>
<path d="M32.4399 0.882874V13.3129C32.4399 15.4346 34.1599 17.1545 36.2815 17.1545H50.0213C48.6808 8.4047 41.3869 1.54776 32.4399 0.882874Z" fill="#DAE2FE"/>
<path d="M19.5986 21.3214C19.2843 21.6821 18.8305 21.8889 18.3534 21.8889C17.8763 21.8889 17.4225 21.682 17.1082 21.3214C16.8103 20.9798 16.2922 20.9443 15.9508 21.2418C15.6092 21.5396 15.5737 22.0578 15.8714 22.3992C16.4974 23.1175 17.4021 23.5295 18.3533 23.5295C19.3045 23.5295 20.2093 23.1175 20.8352 22.3992C21.133 22.0578 21.0974 21.5396 20.7558 21.2418C20.4142 20.9441 19.8962 20.9798 19.5986 21.3214Z" fill="#121926"/>
<path d="M32.4906 23.5295C33.4421 23.5295 34.3468 23.1175 34.9727 22.3992C35.2704 22.0577 35.2347 21.5394 34.8932 21.2418C34.5514 20.9441 34.0333 20.9798 33.7358 21.3214C33.4214 21.6821 32.9676 21.8889 32.4905 21.8889C32.0134 21.8889 31.5597 21.682 31.2454 21.3214C30.9476 20.98 30.4298 20.9443 30.088 21.2418C29.7465 21.5394 29.7109 22.0577 30.0085 22.3992C30.6345 23.1175 31.5392 23.5295 32.4906 23.5295Z" fill="#121926"/>
<path d="M23.0821 25.8812C23.4236 26.1788 23.9417 26.1433 24.2395 25.8017C24.538 25.4591 24.969 25.2627 25.422 25.2627C25.8749 25.2627 26.3058 25.4591 26.6043 25.8016C26.7664 25.9877 26.9941 26.083 27.223 26.083C27.4142 26.083 27.6062 26.0166 27.7616 25.8811C28.1032 25.5835 28.1388 25.0653 27.8412 24.7238C27.2311 24.0236 26.3493 23.6221 25.4221 23.6221C24.4948 23.6221 23.613 24.0236 23.0028 24.7237C22.7051 25.0653 22.7405 25.5835 23.0821 25.8812Z" fill="#121926"/>
<path d="M25.8874 45.1902H14.4009C13.9477 45.1902 13.5806 45.5574 13.5806 46.0105C13.5806 46.4636 13.9477 46.8308 14.4009 46.8308H25.8874C26.3406 46.8308 26.7078 46.4636 26.7078 46.0105C26.7078 45.5574 26.3406 45.1902 25.8874 45.1902Z" fill="#121926"/>
<path d="M10.8464 45.1902H7.875C7.42186 45.1902 7.05469 45.5574 7.05469 46.0105C7.05469 46.4636 7.42186 46.8308 7.875 46.8308H10.8464C11.2995 46.8308 11.6667 46.4636 11.6667 46.0105C11.6667 45.5574 11.2995 45.1902 10.8464 45.1902Z" fill="#121926"/>
<path d="M12.1239 15.1619C12.263 15.4604 12.5588 15.6357 12.8678 15.6357C12.984 15.6357 13.1019 15.6109 13.214 15.5586C13.6246 15.3672 13.8022 14.8791 13.6107 14.4685L12.6334 12.3729L13.9692 11.75C14.3798 11.5586 14.5575 11.0705 14.3659 10.6598C14.1745 10.2492 13.6865 10.0714 13.2758 10.2631L11.9401 10.886L11.3588 9.63936L12.8741 8.93269C13.2847 8.74129 13.4623 8.25315 13.2708 7.84255C13.0793 7.43196 12.5913 7.25422 12.1806 7.44585L9.92203 8.49913C9.51144 8.69054 9.33381 9.17868 9.52533 9.58927L12.1239 15.1619Z" fill="#121926"/>
<path d="M12.3673 19.021C13.4535 19.021 14.5069 18.7866 15.498 18.3244C19.2052 16.5957 20.8148 12.1733 19.0861 8.46617C17.8725 5.86338 15.2318 4.18152 12.3588 4.18152C11.2725 4.18152 10.2192 4.41591 9.228 4.87813C5.52084 6.6068 3.91128 11.0292 5.63995 14.7363C6.85358 17.3391 9.49433 19.021 12.3673 19.021ZM9.92144 6.36497C10.6938 6.0048 11.514 5.82214 12.3588 5.82214C14.5969 5.82214 16.6539 7.13213 17.5992 9.15961C18.9456 12.0468 17.692 15.4911 14.8046 16.8375C14.0322 17.1977 13.2121 17.3803 12.3673 17.3803C10.1291 17.3803 8.07212 16.0703 7.1268 14.0429C5.7805 11.1557 7.03416 7.71149 9.92144 6.36497Z" fill="#121926"/>
<path d="M56 39.6023C56 35.4464 54.0712 31.733 51.0624 29.3085V20.0595C51.0624 14.7252 48.9709 9.69578 45.1733 5.89817C41.3757 2.10056 36.3465 0.00909424 31.0121 0.00909424H8.88245C3.98464 0.00909424 0 3.99384 0 8.89166V47.1084C0 52.0062 3.98464 55.9909 8.88245 55.9909H42.18C45.7874 55.9909 49.0995 53.7341 50.4378 50.3708C53.8021 47.9727 56 44.0394 56 39.6023ZM42.18 54.3503H8.88245C4.88928 54.3503 1.64062 51.1017 1.64062 47.1084V8.89166C1.64062 4.89838 4.88928 1.64972 8.88245 1.64972H31.0121C31.2155 1.64972 31.4179 1.6542 31.6198 1.66088V13.3129C31.6198 15.8835 33.7111 17.9748 36.2817 17.9748H41.125C41.5781 17.9748 41.9453 17.6076 41.9453 17.1545C41.9453 16.7014 41.5781 16.3342 41.125 16.3342H36.2817C34.6158 16.3342 33.2604 14.9788 33.2604 13.3129V1.7872C41.1191 2.74839 47.4637 8.68067 49.0428 16.3342H44.5156C44.0625 16.3342 43.6953 16.7014 43.6953 17.1545C43.6953 17.6076 44.0625 17.9748 44.5156 17.9748H49.3031C49.3806 18.6593 49.4219 19.3547 49.4219 20.0596V28.1781C47.47 27.0396 45.202 26.3863 42.784 26.3863C37.9095 26.3863 33.6434 29.0392 31.3523 32.9767H7.875C7.42186 32.9767 7.05469 33.3439 7.05469 33.797C7.05469 34.2501 7.42186 34.6173 7.875 34.6173H30.5447C29.9884 35.9779 29.6527 37.451 29.5822 38.9923H7.875C7.42186 38.9923 7.05469 39.3595 7.05469 39.8126C7.05469 40.2658 7.42186 40.6329 7.875 40.6329H29.6076C30.1351 47.4405 35.8432 52.8185 42.7839 52.8185C44.4723 52.8185 46.0875 52.4998 47.5732 51.9201C46.2175 53.4292 44.259 54.3503 42.18 54.3503ZM42.7839 51.1778C36.4011 51.1778 31.2083 45.985 31.2083 39.6023C31.2083 33.2196 36.4011 28.0268 42.7839 28.0268C49.1666 28.0268 54.3594 33.2196 54.3594 39.6023C54.3594 45.985 49.1666 51.1778 42.7839 51.1778Z" fill="#121926"/>
<path d="M49.7434 35.78C49.7434 34.9421 49.4172 34.1542 48.8246 33.5618C48.2321 32.9693 47.4443 32.643 46.6065 32.643C45.7685 32.643 44.9807 32.9693 44.3882 33.5618L42.7841 35.166L41.1798 33.5618C40.5873 32.9693 39.7995 32.643 38.9617 32.643C38.1238 32.643 37.3359 32.9693 36.7436 33.5618C36.151 34.1542 35.8247 34.9421 35.8247 35.78C35.8247 36.6179 36.151 37.4057 36.7435 37.9982L38.3477 39.6023L36.7435 41.2064C36.151 41.799 35.8247 42.5867 35.8247 43.4246C35.8247 44.2626 36.151 45.0504 36.7435 45.6428C37.3359 46.2354 38.1238 46.5616 38.9617 46.5616C39.7996 46.5616 40.5873 46.2354 41.1797 45.6429L42.784 44.0387L44.3881 45.6428C44.9806 46.2354 45.7684 46.5616 46.6064 46.5616C47.4443 46.5616 48.232 46.2354 48.8246 45.6429C50.0476 44.4197 50.0476 42.4297 48.8246 41.2064L47.2204 39.6023L48.8246 37.9982C49.4171 37.4057 49.7434 36.6179 49.7434 35.78ZM47.6644 36.8381L45.4802 39.0223C45.1599 39.3428 45.1599 39.8621 45.4802 40.1824L47.6644 42.3666C48.2478 42.9501 48.248 43.8994 47.6644 44.4828C47.3818 44.7656 47.006 44.9212 46.6064 44.9212C46.2067 44.9212 45.8309 44.7656 45.5483 44.4828L43.364 42.2986C43.2038 42.1385 42.9939 42.0584 42.7839 42.0584C42.574 42.0584 42.364 42.1385 42.2039 42.2986L40.0197 44.4828C39.7371 44.7655 39.3612 44.9211 38.9617 44.9211C38.562 44.9211 38.1862 44.7655 37.9035 44.4827C37.6209 44.2001 37.4652 43.8243 37.4652 43.4246C37.4652 43.025 37.6209 42.6492 37.9036 42.3666L40.0878 40.1823C40.4082 39.8619 40.4082 39.3425 40.0878 39.0222L37.9035 36.838C37.6209 36.5553 37.4652 36.1795 37.4652 35.7799C37.4652 35.3802 37.6209 35.0044 37.9036 34.7218C38.1861 34.4392 38.5619 34.2834 38.9617 34.2834C39.3613 34.2834 39.7372 34.4392 40.0198 34.7218L42.2041 36.906C42.5244 37.2263 43.0438 37.2263 43.3641 36.906L45.5484 34.7218C45.8309 34.4392 46.2068 34.2834 46.6065 34.2834C47.0061 34.2834 47.3819 34.4392 47.6646 34.7218C47.9472 35.0043 48.1029 35.3802 48.1029 35.7799C48.1029 36.1795 47.9471 36.5556 47.6644 36.8381Z" fill="#121926"/>
</g>
<defs>
<clipPath id="clip0_7583_19935">
<rect width="56" height="56" fill="white"/>
</clipPath>
</defs>
</svg>
