<svg xmlns="http://www.w3.org/2000/svg" width="20" height="21" viewBox="0 0 20 21" fill="none">
  <g clip-path="url(#clip0_6946_13209)">
    <path d="M12.8672 0.33252L8.64185 3.35063H12.5654L14.4668 0.815417C14.616 0.616463 14.474 0.33252 14.2253 0.33252H12.8672Z" fill="#FF4755"/>
    <path d="M12.8672 0.33252L8.64185 3.35063H12.5654L14.4668 0.815417C14.616 0.616463 14.474 0.33252 14.2253 0.33252H12.8672Z" fill="black" fill-opacity="0.2"/>
    <path d="M10.8149 0.453244L8.64185 3.35063H10.6036L12.8672 0.33252H11.0563C10.9613 0.33252 10.8719 0.377228 10.8149 0.453244Z" fill="#FF4755"/>
    <path d="M8.94367 0.33252H5.77466C5.52597 0.33252 5.38399 0.616463 5.53321 0.815417L7.43462 3.35063H11.3582L9.18512 0.453244C9.12814 0.377228 9.03868 0.33252 8.94367 0.33252Z" fill="#FF4755"/>
    <path d="M7.58551 3.35059H8.79275V7.57594H7.58551V3.35059Z" fill="#FF9733"/>
    <path d="M11.2072 3.35059H12.4145V7.57594H11.2072V3.35059Z" fill="#FF7647"/>
    <path d="M13.0181 2.74707H11.8109V3.95431H13.0181C13.3515 3.95431 13.6217 3.68405 13.6217 3.35069C13.6217 3.01733 13.3515 2.74707 13.0181 2.74707Z" fill="#FF9733"/>
    <path d="M12.4145 3.35069C12.4145 3.01733 12.1442 2.74707 11.8109 2.74707H6.98189C6.64853 2.74707 6.37827 3.01733 6.37827 3.35069C6.37827 3.68405 6.64853 3.95431 6.98189 3.95431H11.8109C12.1442 3.95431 12.4145 3.68405 12.4145 3.35069Z" fill="#FFB44E"/>
    <path d="M10 20.3324C14.1894 20.3324 17.5855 16.9363 17.5855 12.7469C17.5855 8.55753 14.1894 5.16138 10 5.16138C5.81064 5.16138 2.41449 8.55753 2.41449 12.7469C2.41449 16.9363 5.81064 20.3324 10 20.3324Z" fill="#FFB44E"/>
    <path d="M10 19.1252C13.5226 19.1252 16.3783 16.2695 16.3783 12.7469C16.3783 9.2243 13.5226 6.36865 10 6.36865C6.47738 6.36865 3.62173 9.2243 3.62173 12.7469C3.62173 16.2695 6.47738 19.1252 10 19.1252Z" fill="#FFD06A"/>
    <path d="M10 7.57593V17.918C12.8559 17.918 15.171 15.6028 15.171 12.747C15.171 9.89106 12.8559 7.57593 10 7.57593Z" fill="#FF7647"/>
    <path d="M13.9638 12.747C13.9638 9.89106 12.1891 7.57593 10 7.57593C7.14411 7.57593 4.82898 9.89106 4.82898 12.747C4.82898 15.6028 7.14411 17.918 10 17.918C12.1891 17.918 13.9638 15.6028 13.9638 12.747Z" fill="#FF9733"/>
    <path d="M12.2775 11.2974L11.174 11.1311L10 8.7832L8.82604 11.1311L6.23022 11.5221L8.10049 13.3642L7.67014 15.9537L10 14.7442L10.9905 15.2585L12.2775 11.2974Z" fill="#FFD06A"/>
    <path d="M11.8995 13.3642L13.7698 11.5221L12.2775 11.2974L10.6059 12.9439L10.9905 15.2585L12.3299 15.9537L11.8995 13.3642Z" fill="#FFB44E"/>
  </g>
  <defs>
    <clipPath id="clip0_6946_13209">
      <rect width="20" height="20" fill="white" transform="translate(0 0.33252)"/>
    </clipPath>
  </defs>
</svg>