<svg width="44" height="56" viewBox="0 0 44 56" fill="none" xmlns="http://www.w3.org/2000/svg">
<path d="M37.8594 56H6.14062C2.82359 56 0.125 53.5653 0.125 50.5726V10.6774C0.125 7.68473 2.82359 5.25 6.14062 5.25H9.85156C10.283 5.25 10.6328 5.56564 10.6328 5.95486C10.6328 6.34409 10.283 6.65972 9.85156 6.65972H6.14062C3.68516 6.65972 1.6875 8.46205 1.6875 10.6774V50.5726C1.6875 52.7879 3.68516 54.5903 6.14062 54.5903H37.8594C40.3148 54.5903 42.3125 52.7879 42.3125 50.5726V10.6774C42.3125 8.46205 40.3148 6.65972 37.8594 6.65972H34.1484C33.7169 6.65972 33.3672 6.34409 33.3672 5.95486C33.3672 5.56564 33.7169 5.25 34.1484 5.25H37.8594C41.1763 5.25 43.875 7.68473 43.875 10.6774V50.5726C43.875 53.5653 41.1763 56 37.8594 56Z" fill="#121926"/>
<path d="M33.9409 7.33708V8.5067H11.2573V7.33708C11.2573 6.74872 11.3707 6.18731 11.5763 5.67125C12.2086 4.08341 13.7213 2.94072 15.5105 2.8429V0.709229H29.6877V2.8429C31.4769 2.94072 32.9896 4.08341 33.6219 5.67125C33.8275 6.18731 33.9409 6.74872 33.9409 7.33708Z" fill="#9AA4B2"/>
<path d="M33.5294 9.625H10.4706C10.0727 9.625 9.75 9.29346 9.75 8.88461V7.66298C9.75 6.96909 9.87625 6.29149 10.1254 5.64899C10.8003 3.90745 12.3081 2.65428 14.0735 2.314V0.740385C14.0735 0.331544 14.3962 0 14.7941 0H29.2059C29.6038 0 29.9265 0.331544 29.9265 0.740385V2.314C31.6919 2.65413 33.1997 3.90745 33.8747 5.64913C34.1236 6.29149 34.25 6.96909 34.25 7.66298V8.88461C34.25 9.29346 33.9273 9.625 33.5294 9.625ZM11.1912 8.14423H32.8088V7.66298C32.8088 7.15759 32.7169 6.6645 32.5356 6.19717C31.9822 4.76911 30.6596 3.79225 29.1664 3.70829C28.7843 3.68667 28.4853 3.36209 28.4853 2.96894V1.48077H15.5147V2.96894C15.5147 3.36209 15.2155 3.68682 14.8335 3.70829C13.3403 3.79225 12.0177 4.76911 11.4644 6.19702C11.2831 6.6645 11.1913 7.15774 11.1913 7.66298V8.14423H11.1912Z" fill="#121926"/>
<path d="M33.4423 51.0375H5.79675C5.40532 51.0375 5.08789 50.7202 5.08789 50.3287V21.2654C5.08789 20.8739 5.40532 20.5565 5.79675 20.5565C6.18818 20.5565 6.50561 20.8739 6.50561 21.2654V49.6198H32.7335V41.1135C32.7335 40.7219 33.0507 40.4046 33.4423 40.4046C33.8337 40.4046 34.1512 40.7219 34.1512 41.1135V50.3287C34.1512 50.7202 33.8337 51.0375 33.4423 51.0375Z" fill="#121926"/>
<path d="M29.8976 47.4933H9.3407C8.94926 47.4933 8.63184 47.176 8.63184 46.7844C8.63184 46.3928 8.94926 46.0756 9.3407 46.0756H29.8976C30.2891 46.0756 30.6065 46.3928 30.6065 46.7844C30.6065 47.176 30.2891 47.4933 29.8976 47.4933Z" fill="#121926"/>
<path d="M29.8976 43.9493H9.3407C8.94926 43.9493 8.63184 43.6321 8.63184 43.2405C8.63184 42.8489 8.94926 42.5316 9.3407 42.5316H29.8976C30.2891 42.5316 30.6065 42.8489 30.6065 43.2405C30.6065 43.6321 30.2891 43.9493 29.8976 43.9493Z" fill="#121926"/>
<path d="M34.8677 15.5148C35.7072 16.3526 35.7072 17.7122 34.8677 18.5501L31.2711 22.1483L26.268 27.1514L23.2312 30.1868L20.1957 27.1514L18.6788 25.6345C18.2591 25.2148 18.0493 24.6662 18.0493 24.1161C18.0493 23.566 18.2591 23.0174 18.6788 22.5977C19.5167 21.7598 20.8763 21.7598 21.7141 22.5977L23.2325 24.1161L28.9445 18.4027L31.8324 15.5148C32.2505 15.0965 32.8007 14.8867 33.3508 14.8867C33.8994 14.8867 34.4481 15.0965 34.8677 15.5148Z" fill="#F6334C"/>
<path d="M31.2752 22.1465C31.624 23.1588 31.8154 24.2447 31.8154 25.3761C31.8154 30.857 27.3722 35.3001 21.8913 35.3001C16.4104 35.3001 11.9673 30.8568 11.9673 25.3761C11.9673 19.8953 16.4104 15.452 21.8913 15.452C24.6531 15.452 27.1497 16.5805 28.9488 18.4009L23.2368 24.1143L21.7184 22.5959C20.8805 21.7581 19.5209 21.7581 18.683 22.5959C18.2634 23.0156 18.0536 23.5642 18.0536 24.1143C18.0536 24.6644 18.2634 25.213 18.683 25.6327L20.2 27.1496L23.2355 30.185L26.2722 27.1496L31.2752 22.1465Z" fill="#FF8A98"/>
<path d="M16.6574 25.3752C16.6574 21.0599 19.6398 17.4081 23.749 16.1863C22.7963 15.9029 21.7831 15.7502 20.7323 15.7502C15.1497 15.7502 11.499 20.0595 11.499 25.3752C11.499 30.691 15.1497 35.0002 20.7323 35.0002C21.7831 35.0002 22.7963 34.8475 23.749 34.5642C19.6398 33.3424 16.6574 29.6905 16.6574 25.3752Z" fill="#FD5C6F"/>
<path d="M21.8893 36.0095C16.0263 36.0095 11.2563 31.2396 11.2563 25.3766C11.2563 19.5136 16.0263 14.7437 21.8893 14.7437C24.7518 14.7437 27.4372 15.8658 29.4508 17.903C29.726 18.1815 29.7234 18.6303 29.4449 18.9055C29.1664 19.1806 28.7176 19.1781 28.4425 18.8997C26.6972 17.1338 24.37 16.1614 21.8893 16.1614C16.808 16.1614 12.6741 20.2953 12.6741 25.3766C12.6741 30.4578 16.808 34.5918 21.8893 34.5918C26.9705 34.5918 31.1044 30.4578 31.1044 25.3766C31.1044 24.3527 30.9357 23.3438 30.603 22.3779C30.4754 22.0078 30.672 21.6044 31.0422 21.4768C31.4122 21.3492 31.8159 21.5459 31.9435 21.916C32.3275 23.0308 32.5223 24.195 32.5223 25.3766C32.5222 31.2397 27.7521 36.0095 21.8893 36.0095Z" fill="#121926"/>
<path d="M23.2308 30.895C23.0495 30.895 22.868 30.8258 22.7297 30.6873L18.1774 26.135C17.6375 25.5952 17.3403 24.8779 17.3403 24.1154C17.3403 23.3528 17.6376 22.6355 18.1774 22.0957C18.7165 21.5565 19.4335 21.2596 20.1962 21.2596C20.9591 21.2596 21.676 21.5565 22.2152 22.0958L23.2322 23.1129L28.4429 17.9008L31.331 15.0129C31.8699 14.474 32.5871 14.1771 33.3505 14.1771C34.1113 14.1771 34.8278 14.4736 35.3679 15.012C35.9084 15.5516 36.2058 16.2687 36.2058 17.0318C36.2058 17.7949 35.9082 18.512 35.3682 19.0511L23.732 30.6875C23.5936 30.8258 23.4123 30.895 23.2308 30.895ZM20.1963 22.6775C19.8123 22.6775 19.4513 22.8269 19.18 23.0983C18.9079 23.3703 18.7581 23.7316 18.7581 24.1155C18.7581 24.4993 18.9079 24.8606 19.18 25.1326L23.2311 29.1838L34.3663 18.0484C34.6387 17.7766 34.7884 17.4158 34.7884 17.0318C34.7884 16.6479 34.6387 16.2871 34.3669 16.0158C34.0947 15.7446 33.7336 15.5948 33.3507 15.5948C32.966 15.5948 32.6047 15.7441 32.3336 16.0153L29.4457 18.9032L23.7338 24.6167C23.6007 24.7496 23.4205 24.8244 23.2325 24.8244C23.0445 24.8244 22.8642 24.7496 22.7314 24.6168L21.2128 23.0984C20.9415 22.8269 20.5804 22.6775 20.1963 22.6775Z" fill="#121926"/>
</svg>
