<svg xmlns="http://www.w3.org/2000/svg" width="16" height="17" viewBox="0 0 16 17" fill="none">
  <g clip-path="url(#clip0_6946_13174)">
    <path d="M9.36644 4.33256C10.0176 4.4596 10.616 4.77807 11.0851 5.24718C11.5543 5.7163 11.8727 6.31474 11.9998 6.96589M9.36644 1.66589C10.7193 1.81618 11.9808 2.42201 12.9439 3.3839C13.907 4.34579 14.5144 5.60657 14.6664 6.95923M6.81776 9.57461C6.0167 8.77355 5.38418 7.86779 4.92018 6.90138C4.88027 6.81825 4.86031 6.77669 4.84498 6.7241C4.7905 6.53719 4.82963 6.30769 4.94297 6.1494C4.97487 6.10486 5.01297 6.06676 5.08918 5.99055C5.32225 5.75748 5.43879 5.64094 5.51498 5.52376C5.80231 5.08183 5.80231 4.51211 5.51498 4.07018C5.43879 3.953 5.32225 3.83646 5.08918 3.60339L4.95927 3.47348C4.60497 3.11918 4.42782 2.94203 4.23757 2.8458C3.8592 2.65442 3.41235 2.65442 3.03398 2.8458C2.84373 2.94203 2.66658 3.11918 2.31228 3.47348L2.20719 3.57857C1.85411 3.93165 1.67757 4.10819 1.54274 4.34821C1.39312 4.61455 1.28555 5.02821 1.28646 5.33369C1.28728 5.60899 1.34068 5.79714 1.44749 6.17344C2.02147 8.1957 3.10445 10.1039 4.69644 11.6959C6.28842 13.2879 8.19666 14.3709 10.2189 14.9449C10.5952 15.0517 10.7834 15.1051 11.0587 15.1059C11.3642 15.1068 11.7778 14.9992 12.0442 14.8496C12.2842 14.7148 12.4607 14.5383 12.8138 14.1852L12.9189 14.0801C13.2732 13.7258 13.4503 13.5486 13.5466 13.3584C13.7379 12.98 13.7379 12.5332 13.5466 12.1548C13.4503 11.9645 13.2732 11.7874 12.9189 11.4331L12.789 11.3032C12.5559 11.0701 12.4394 10.9536 12.3222 10.8774C11.8803 10.5901 11.3105 10.5901 10.8686 10.8774C10.7514 10.9536 10.6349 11.0701 10.4018 11.3032C10.3256 11.3794 10.2875 11.4175 10.243 11.4494C10.0847 11.5627 9.85517 11.6019 9.66827 11.5474C9.61567 11.532 9.57411 11.5121 9.49098 11.4722C8.52457 11.0082 7.61881 10.3757 6.81776 9.57461Z" stroke="#0C9587" stroke-width="1.5" stroke-linecap="round" stroke-linejoin="round"/>
  </g>
  <defs>
    <clipPath id="clip0_6946_13174">
      <rect width="16" height="16" fill="white" transform="translate(0 0.33252)"/>
    </clipPath>
  </defs>
</svg>