<svg xmlns="http://www.w3.org/2000/svg" width="16" height="19" viewBox="0 0 16 19" fill="none">
  <path d="M0.916672 2.6475C0.916672 1.73714 1.66286 0.999146 2.58334 0.999146C3.50381 0.999146 4.25 1.73714 4.25 2.6475C4.25 2.97564 4.15305 3.28139 3.98593 3.53826C3.48784 4.30382 2.58334 5.03384 2.58334 5.9442V6.35629M2.58334 8.49915H2.59332" stroke="#6938EF" stroke-width="1.5" stroke-linecap="round" stroke-linejoin="round"/>
  <path d="M6.75001 0.999146H8.64394C11.3616 0.999146 12.7205 0.999146 13.6641 1.66401C13.9345 1.8545 14.1745 2.08042 14.3769 2.33489C15.0833 3.22304 15.0833 4.50194 15.0833 7.05975V9.18096C15.0833 11.6503 15.0833 12.8849 14.6926 13.871C14.0643 15.4563 12.7357 16.7067 11.0514 17.298C10.0036 17.6658 8.69183 17.6658 6.06819 17.6658C4.56896 17.6658 3.81935 17.6658 3.22065 17.4556C2.25816 17.1178 1.49896 16.4032 1.13997 15.4974C0.916672 14.9339 0.916672 14.2284 0.916672 12.8173V10.9991" stroke="#6938EF" stroke-width="1.5" stroke-linecap="round" stroke-linejoin="round"/>
  <path d="M15.0833 9.33252C15.0833 10.8666 13.8397 12.1103 12.3056 12.1103C11.7507 12.1103 11.0966 12.0131 10.5572 12.1576C10.0779 12.286 9.70353 12.6604 9.5751 13.1397C9.43056 13.6792 9.52778 14.3333 9.52778 14.8881C9.52778 16.4222 8.28412 17.6659 6.75 17.6659" stroke="#6938EF" stroke-width="1.5" stroke-linecap="round" stroke-linejoin="round"/>
</svg>