<svg xmlns="http://www.w3.org/2000/svg" width="32" height="33" viewBox="0 0 32 33" fill="none">
  <path d="M8.66667 4.33252C12.9256 4.33252 16 7.84858 15.9999 13.0547C15.9726 20.6189 10.2862 25.967 2.08282 26.994C1.32174 27.0893 1.02827 26.035 1.72913 25.7234C4.87685 24.3237 6.46661 22.5476 6.67195 20.7896C6.82537 19.4762 6.11138 18.3257 5.21484 18.1103C2.8906 17.5517 1.33333 14.6573 1.33333 11.6659C1.33333 7.61576 4.61658 4.33252 8.66667 4.33252Z" fill="#0C9587"/>
  <path d="M24.6667 4.33252C28.9256 4.33252 32 7.84858 31.9999 13.0547C31.9726 20.6189 26.2862 25.967 18.0828 26.994C17.3217 27.0893 17.0283 26.035 17.7291 25.7234C20.8769 24.3237 22.4666 22.5476 22.672 20.7896C22.8254 19.4762 22.1114 18.3257 21.2148 18.1103C18.8906 17.5517 17.3333 14.6573 17.3333 11.6659C17.3333 7.61576 20.6166 4.33252 24.6667 4.33252Z" fill="#0C9587"/>
</svg>