<svg xmlns="http://www.w3.org/2000/svg" width="20" height="21" viewBox="0 0 20 21" fill="none">
  <g clip-path="url(#clip0_6946_13234)">
    <path d="M14.3459 12.8325L14.7918 12.9333L16.2394 16.9398C16.2856 17.0674 16.1782 17.198 16.0387 17.1839L14.0095 16.9792C13.9528 16.9735 13.8965 16.9924 13.8558 17.0307L12.397 18.4049C12.2968 18.4994 12.1285 18.4613 12.0824 18.3337L10.6253 14.3009L10.8361 14.0033L14.3459 12.8325Z" fill="#FF4755"/>
    <path d="M5.65471 12.8325L5.20879 12.9333L3.76114 16.9398C3.71501 17.0674 3.82235 17.198 3.96188 17.1839L5.99107 16.9792C6.04776 16.9735 6.10411 16.9924 6.14483 17.0307L7.60356 18.4049C7.70384 18.4994 7.87209 18.4613 7.91818 18.3337L9.37529 14.3009L9.16447 14.0033L5.65471 12.8325Z" fill="#FF4755"/>
    <path d="M10 14.3406C2.74922 14.3406 2.7432 7.34768 2.74922 7.22646C2.93981 3.38697 6.1132 0.33252 10 0.33252C13.8868 0.33252 17.0602 3.38697 17.2508 7.22646C17.2568 7.34768 17.2598 14.3406 10 14.3406Z" fill="#FFCB5B"/>
    <path d="M10 14.1205C6.1132 14.1205 2.93992 11.066 2.7493 7.22656C2.74328 7.34777 2.74016 7.46977 2.74016 7.59246C2.74016 11.602 5.99051 14.8523 10 14.8523C14.0095 14.8523 17.2598 11.602 17.2598 7.59246C17.2598 7.46977 17.2567 7.34777 17.2507 7.22656C17.0601 11.066 13.8868 14.1205 10 14.1205Z" fill="#F7B737"/>
    <path d="M10 12.8336C4.29231 12.8336 4.28466 7.34734 4.29231 7.22633C4.48099 4.2382 6.96431 1.87305 10 1.87305C13.0357 1.87305 15.519 4.2382 15.7077 7.22633C15.7154 7.34734 15.7192 12.8336 10 12.8336Z" fill="#FF9838"/>
    <path d="M10 12.5798C6.96429 12.5798 4.48148 10.2146 4.29277 7.22656C4.28511 7.34758 4.28078 7.46953 4.28078 7.59246C4.28078 10.7511 6.84136 13.3117 10 13.3117C13.1586 13.3117 15.7192 10.7511 15.7192 7.59246C15.7192 7.46949 15.7149 7.34758 15.7072 7.22656C15.5185 10.2146 13.0357 12.5798 10 12.5798Z" fill="#FF8709"/>
  </g>
  <defs>
    <clipPath id="clip0_6946_13234">
      <rect width="20" height="20" fill="white" transform="translate(0 0.33252)"/>
    </clipPath>
  </defs>
</svg>