<svg xmlns="http://www.w3.org/2000/svg" width="20" height="21" viewBox="0 0 20 21" fill="none">
  <path d="M8.33335 6.99935V6.16602M8.33335 10.7493V9.91602M8.33335 14.4993V13.666M4.33335 3.66602H15.6667C16.6001 3.66602 17.0668 3.66602 17.4233 3.84767C17.7369 4.00746 17.9919 4.26243 18.1517 4.57603C18.3334 4.93255 18.3334 5.39926 18.3334 6.33268V7.41602C16.7225 7.41602 15.4167 8.72185 15.4167 10.3327C15.4167 11.9435 16.7225 13.2493 18.3334 13.2493V14.3327C18.3334 15.2661 18.3334 15.7328 18.1517 16.0893C17.9919 16.4029 17.7369 16.6579 17.4233 16.8177C17.0668 16.9993 16.6001 16.9993 15.6667 16.9993H4.33335C3.39993 16.9993 2.93322 16.9993 2.5767 16.8177C2.2631 16.6579 2.00813 16.4029 1.84834 16.0893C1.66669 15.7328 1.66669 15.2661 1.66669 14.3327V13.2493C3.27752 13.2493 4.58335 11.9435 4.58335 10.3327C4.58335 8.72185 3.27752 7.41602 1.66669 7.41602V6.33268C1.66669 5.39926 1.66669 4.93255 1.84834 4.57603C2.00813 4.26243 2.2631 4.00746 2.5767 3.84767C2.93322 3.66602 3.39993 3.66602 4.33335 3.66602Z" stroke="#0E776D" stroke-width="1.66667" stroke-linecap="round" stroke-linejoin="round"/>
</svg>