<svg xmlns="http://www.w3.org/2000/svg" width="20" height="17" viewBox="0 0 20 17" fill="none">
  <path d="M15.5134 14.9991H15.9219C16.8801 14.9991 17.6423 14.5626 18.3266 13.9521C20.065 12.4013 15.9784 10.8325 14.5833 10.8325M12.9167 2.55645C13.1059 2.51892 13.3024 2.49915 13.504 2.49915C15.0206 2.49915 16.25 3.61843 16.25 4.99915C16.25 6.37986 15.0206 7.49915 13.504 7.49915C13.3024 7.49915 13.1059 7.47937 12.9167 7.44184" stroke="#088AB2" stroke-width="1.5" stroke-linecap="round"/>
  <path d="M3.73443 11.7585C2.75195 12.285 0.175948 13.3601 1.7449 14.7053C2.51133 15.3625 3.36492 15.8325 4.4381 15.8325H10.5619C11.6351 15.8325 12.4887 15.3625 13.2551 14.7053C14.8241 13.3601 12.2481 12.285 11.2656 11.7585C8.96167 10.5238 6.03832 10.5238 3.73443 11.7585Z" stroke="#088AB2" stroke-width="1.5"/>
  <path d="M10.8333 4.58248C10.8333 6.42343 9.34095 7.91581 7.5 7.91581C5.65905 7.91581 4.16667 6.42343 4.16667 4.58248C4.16667 2.74153 5.65905 1.24915 7.5 1.24915C9.34095 1.24915 10.8333 2.74153 10.8333 4.58248Z" stroke="#088AB2" stroke-width="1.5"/>
</svg>