<svg xmlns="http://www.w3.org/2000/svg" width="20" height="19" viewBox="0 0 20 19" fill="none">
  <circle cx="10" cy="9.33248" r="8.33333" stroke="#0C9587" stroke-width="1.5"/>
  <path d="M12.8776 9.66143C12.7514 10.1837 12.1548 10.5528 10.9616 11.2909C9.80812 12.0045 9.23139 12.3612 8.76661 12.2178C8.57446 12.1585 8.39938 12.0459 8.25819 11.8908C7.91667 11.5156 7.91667 10.7879 7.91667 9.33244C7.91667 7.87698 7.91667 7.14925 8.25819 6.77406C8.39938 6.61895 8.57446 6.50634 8.76661 6.44705C9.23139 6.30363 9.80812 6.66041 10.9616 7.37397C12.1548 8.11209 12.7514 8.48116 12.8776 9.00345C12.9297 9.21903 12.9297 9.44584 12.8776 9.66143Z" stroke="#0C9587" stroke-width="1.5" stroke-linejoin="round"/>
</svg>